# xmcd
#
# Track frame offsets:
#	150
#	14222
#	30115
#	45942
#	61896
#	77447
#	101187
#	114535
#	133509
#	148668
#	167454
#	183020
#
# Disc length: 2624 seconds
# Revision: 0
# Processed by: cddbd v1.5.2PL0 Copyright (c) Steve Scherf et al.
# Submitted via: dBpowerAMP V12.0
#
DISCID=8e0a3e0c
DTITLE=Tammy Jones Robinette and The Drive - Tammy Jones Robinette and The Drive
DYEAR=2015
DGENRE=Country
TTITLE0=To Be a Kid Again
TTITLE1=I Think I'll Let You Drive
TTITLE2=I've Got to Work on the Ark  
TTITLE3=The Letters 
TTITLE4=There's a Record Book 
TTITLE5=Mama's in the Sweet By and By 
TTITLE6=Pages of Time
TTITLE7=The Man in Those Shoes 
TTITLE8=My Rock 
TTITLE9=Love God 
TTITLE10=The Colors That Never Ran 
TTITLE11=Oh I Want to See Him 
EXTD=
EXTT0=
EXTT1=
EXTT2=
EXTT3=
EXTT4=
EXTT5=
EXTT6=
EXTT7=
EXTT8=
EXTT9=
EXTT10=
EXTT11=
PLAYORDER=
